<!DOCTYPE svg PUBLIC "-//W3C//DTD SVG 1.1//EN" "http://www.w3.org/Graphics/SVG/1.1/DTD/svg11.dtd">
<!-- Uploaded to: SVG Repo, www.svgrepo.com, Transformed by: SVG Repo Mixer Tools -->
<svg width="800px" height="800px" viewBox="-2.4 -2.4 28.80 28.80" fill="none" xmlns="http://www.w3.org/2000/svg">
<g id="SVGRepo_bgCarrier" stroke-width="0">
<path transform="translate(-2.4, -2.4), scale(1.7999999999999998)" fill="#000000" d="M9.166.33a2.25 2.25 0 00-2.332 0l-5.25 3.182A2.25 2.25 0 00.5 5.436v5.128a2.25 2.25 0 001.084 1.924l5.25 3.182a2.25 2.25 0 002.332 0l5.25-3.182a2.25 2.25 0 001.084-1.924V5.436a2.25 2.25 0 00-1.084-1.924L9.166.33z" strokewidth="0"/>
</g>
<g id="SVGRepo_tracerCarrier" stroke-linecap="round" stroke-linejoin="round"/>
<g id="SVGRepo_iconCarrier"> <path d="M4.00003 13.75C3.69074 13.75 3.41317 13.9399 3.30105 14.2281C3.18892 14.5164 3.26524 14.8439 3.49324 15.0529L9.49324 20.5529C9.71249 20.7539 10.0298 20.8063 10.302 20.6865C10.5743 20.5668 10.75 20.2974 10.75 20L10.75 4.00002C10.75 3.5858 10.4142 3.25002 10 3.25002C9.58582 3.25002 9.25003 3.5858 9.25003 4.00002V13.75H4.00003Z" fill="#bb00ff"/> <path d="M20 10.25L14.75 10.25V20C14.75 20.4142 14.4142 20.75 14 20.75C13.5858 20.75 13.25 20.4142 13.25 20L13.25 4.00002C13.25 3.70259 13.4258 3.43327 13.698 3.3135C13.9703 3.19374 14.2876 3.24617 14.5068 3.44715L20.5068 8.94715C20.7348 9.15614 20.8111 9.48366 20.699 9.77191C20.5869 10.0602 20.3093 10.25 20 10.25Z" fill="#bb00ff"/> </g>
</svg>